# Blender v2.83.3 OBJ File: 'up_sign.blend'
# www.blender.org
mtllib up_sign.mtl
o Cube
v 0.647027 0.000000 -0.472280
v 0.647027 0.000000 0.981779
v -0.647027 0.000000 -0.472280
v -0.647027 0.000000 0.981779
v 0.519306 4.933271 -0.343079
v -0.519306 4.152085 0.723378
v 0.519306 4.152085 0.723378
v -0.519306 4.933271 -0.343079
v -0.472192 13.673156 0.628061
v 0.472192 13.673155 -0.804920
v 0.472192 13.673155 0.628061
v -0.472192 13.673155 -0.804920
v -0.699268 19.491716 0.502167
v 0.478071 19.491716 0.502167
v -0.588670 19.453571 -0.810845
v 0.588670 19.453571 -0.810845
v 0.475703 17.149887 0.346840
v -0.607785 17.149887 0.346840
v 0.541744 17.129744 -0.987179
v -0.541744 17.129744 -0.987179
v 0.497558 9.328153 -0.556263
v 0.497558 8.546967 0.679380
v -0.497558 8.546967 0.679380
v -0.497558 9.328153 -0.556263
vt 0.125000 0.500000
vt 0.375000 0.500000
vt 0.375000 0.750000
vt 0.125000 0.750000
vt 0.375000 0.250000
vt nan nan
vt nan nan
vt nan nan
vt 0.421435 0.750000
vt 0.375000 0.000000
vt 0.421435 0.000000
vt nan nan
vt 0.421435 1.000000
vt 0.375000 1.000000
vt nan nan
vt nan nan
vt nan nan
vt nan nan
vt nan nan
vt nan nan
vt nan nan
vt nan nan
vt nan nan
vt nan nan
vt nan nan
vt nan nan
vt nan nan
vt nan nan
vt 0.527914 1.000000
vt nan nan
vt nan nan
vt nan nan
vt nan nan
vt nan nan
vt nan nan
vt nan nan
vt nan nan
vt nan nan
vt nan nan
vt nan nan
vt nan nan
vt nan nan
vt nan nan
vt nan nan
vt nan nan
vt nan nan
vt nan nan
vt nan nan
vt nan nan
vt nan nan
vt nan nan
vt nan nan
vt nan nan
vt nan nan
vt nan nan
vt nan nan
vt nan nan
vt nan nan
vt nan nan
vt nan nan
vt nan nan
vt nan nan
vt nan nan
vt nan nan
vt nan nan
vt nan nan
vt nan nan
vt nan nan
vt nan nan
vt nan nan
vt nan nan
vt nan nan
vt nan nan
vt nan nan
vt nan nan
vt nan nan
vt nan nan
vn 0.0000 -1.0000 0.0000
vn 0.0000 0.0262 -0.9997
vn 0.9996 0.0282 0.0087
vn -0.9996 0.0282 0.0087
vn 0.0000 0.0621 0.9981
vn 0.0000 -0.0571 -0.9984
vn 1.0000 0.0054 0.0016
vn -1.0000 0.0054 0.0016
vn 0.0000 0.0100 0.9999
vn 0.0000 0.0757 -0.9971
vn 0.9976 -0.0153 0.0669
vn -0.9975 -0.0249 -0.0660
vn 0.0000 -0.0662 0.9978
vn 0.0000 0.9996 -0.0290
vn 0.0000 0.0806 0.9967
vn -0.9992 -0.0311 -0.0236
vn 0.9997 -0.0089 0.0239
vn 0.0000 -0.0527 -0.9986
vn -1.0000 0.0050 0.0034
vn 1.0000 0.0050 0.0034
vn 0.0000 -0.0485 -0.9988
usemtl Material.001
s off
f 3/1/1 1/2/1 2/3/1 4/4/1
f 3/5/2 8/6/2 5/7/2 1/2/2
f 1/2/3 5/8/3 7/9/3 2/3/3
f 4/10/4 6/11/4 8/12/4 3/5/4
f 2/3/5 7/9/5 6/13/5 4/14/5
f 24/15/6 12/16/6 10/17/6 21/18/6
f 21/19/7 10/20/7 11/21/7 22/22/7
f 23/23/8 9/24/8 12/25/8 24/26/8
f 22/27/9 11/28/9 9/29/9 23/30/9
f 20/31/10 15/32/10 16/33/10 19/34/10
f 19/35/11 16/36/11 14/37/11 17/38/11
f 18/39/12 13/40/12 15/41/12 20/42/12
f 17/43/13 14/44/13 13/45/13 18/46/13
f 13/47/14 14/48/14 16/49/14 15/50/14
f 11/51/15 17/52/15 18/53/15 9/29/15
f 9/54/16 18/55/16 20/56/16 12/57/16
f 10/58/17 19/59/17 17/60/17 11/61/17
f 12/62/18 20/63/18 19/64/18 10/65/18
f 7/9/9 22/66/9 23/67/9 6/13/9
f 6/11/19 23/68/19 24/69/19 8/70/19
f 5/71/20 21/72/20 22/73/20 7/9/20
f 8/74/21 24/75/21 21/76/21 5/77/21
o Cube.001
v 0.647027 11.713732 5.128897
v 0.647027 16.122347 5.128897
v 0.647027 11.713732 -6.340559
v 0.647027 16.122347 -6.340559
v 1.473090 11.713732 5.128897
v 1.473090 16.122347 5.128897
v 1.473090 11.713732 -6.340559
v 1.473090 16.122347 -6.340559
v 0.647027 13.918039 4.598126
v 0.647027 13.918039 -9.201134
v 1.473090 13.918039 -9.201134
v 1.473090 13.918039 4.598126
v 0.647027 11.950834 -3.406065
v 0.647027 16.359449 -3.406065
v 1.473090 11.950834 -3.406065
v 1.473090 16.359449 -3.406065
v 1.473090 14.155141 -5.670553
v 0.647027 14.155141 -5.670553
v 0.647027 11.919766 0.975893
v 1.473090 16.056822 0.975893
v 1.473090 14.124074 -0.398483
v 0.647027 16.056822 0.975893
v 1.473090 11.919766 0.975893
v 0.647027 14.124074 -0.398483
vt 0.500000 0.186037
vt 0.625000 0.186037
vt 0.625000 0.250000
vt 0.500000 0.250000
vt 0.625000 0.500000
vt 0.500000 0.500000
vt 0.500000 0.659477
vt 0.625000 0.659477
vt 0.625000 0.750000
vt 0.500000 0.750000
vt 0.625000 1.000000
vt 0.500000 1.000000
vt 0.125000 0.659477
vt 0.375000 0.659477
vt 0.375000 0.750000
vt 0.125000 0.750000
vt 0.875000 0.659477
vt 0.875000 0.750000
vt 0.375000 1.000000
vt 0.375000 0.250000
vt 0.375000 0.500000
vt 0.375000 0.186037
vt 0.375000 0.090523
vt 0.500000 0.090523
vt 0.500000 0.563963
vt 0.375000 0.563963
vt 0.875000 0.500000
vt 0.875000 0.563963
vt 0.625000 0.563963
vt 0.125000 0.500000
vt 0.125000 0.563963
vt 0.625000 0.090523
vt 0.500000 0.000000
vt 0.625000 0.000000
vt 0.375000 0.000000
vn -1.0000 0.0000 0.0000
vn 0.0000 0.7921 -0.6104
vn 1.0000 -0.0000 0.0000
vn 0.0000 -0.2341 0.9722
vn 0.0000 -0.9988 -0.0496
vn 0.0000 0.9999 -0.0158
vn 0.0000 0.2341 0.9722
vn 0.0000 -0.7921 -0.6104
vn 0.0000 0.9968 -0.0805
vn 0.0000 -0.9968 0.0805
vn 0.0000 0.9976 0.0689
vn 0.0000 -1.0000 -0.0071
usemtl Material.001
s off
f 42/78/22 38/79/22 28/80/22 34/81/22
f 34/81/23 28/80/23 32/82/23 35/83/23
f 45/84/24 44/85/24 30/86/24 36/87/24
f 36/87/25 30/86/25 26/88/25 33/89/25
f 43/90/26 47/91/26 29/92/26 25/93/26
f 44/85/27 46/94/27 26/95/27 30/86/27
f 29/92/28 36/87/28 33/89/28 25/96/28
f 47/91/24 45/84/24 36/87/24 29/92/24
f 27/97/29 34/81/29 35/83/29 31/98/29
f 37/99/22 42/78/22 34/81/22 27/97/22
f 43/100/22 48/101/22 42/78/22 37/99/22
f 31/98/24 35/83/24 41/102/24 39/103/24
f 32/82/30 28/104/30 38/105/30 40/106/30
f 27/107/31 31/98/31 39/103/31 37/108/31
f 35/83/24 32/82/24 40/106/24 41/102/24
f 48/101/22 46/109/22 38/79/22 42/78/22
f 33/110/22 26/111/22 46/109/22 48/101/22
f 25/112/22 33/110/22 48/101/22 43/100/22
f 39/103/24 41/102/24 45/84/24 47/91/24
f 40/106/32 38/105/32 46/94/32 44/85/32
f 37/108/33 39/103/33 47/91/33 43/90/33
f 41/102/24 40/106/24 44/85/24 45/84/24
